<svg width="343" height="140" viewBox="0 0 343 140" fill="none" xmlns="http://www.w3.org/2000/svg">
<path d="M328 0L331.368 10.3647H342.266L333.449 16.7705L336.817 27.1353L328 20.7295L319.183 27.1353L322.551 16.7705L313.734 10.3647H324.632L328 0Z" fill="white"/>
<path d="M328 55L331.368 65.3647H342.266L333.449 71.7705L336.817 82.1353L328 75.7295L319.183 82.1353L322.551 71.7705L313.734 65.3647H324.632L328 55Z" fill="white"/>
<path d="M328 110L331.368 120.365H342.266L333.449 126.771L336.817 137.135L328 130.729L319.183 137.135L322.551 126.771L313.734 120.365H324.632L328 110Z" fill="white"/>
<path d="M204 57H277V74H204V57Z" fill="white"/>
<path d="M204 89H277V107H204V89Z" fill="white"/>
<path d="M204 122H277V140H204V122Z" fill="white"/>
<path d="M292 0H302V140H292V0Z" fill="white"/>
<path d="M2 37V0H23.4489C26.0642 0 28.4757 0.441082 30.6834 1.32325C32.8911 2.20541 34.7932 3.44384 36.3895 5.03852C37.9859 6.6332 39.2256 8.55021 40.1087 10.7895C41.0257 12.995 41.4843 15.4379 41.4843 18.1183C41.4843 20.7987 41.0257 23.2925 40.1087 25.5997C39.2256 27.9069 37.9859 29.9088 36.3895 31.6052C34.7932 33.2678 32.8911 34.591 30.6834 35.575C28.4757 36.525 26.0642 37 23.4489 37H2ZM23.4489 30.5365C25.1132 30.5365 26.6416 30.2311 28.0341 29.6204C29.4607 29.0096 30.6834 28.1784 31.7024 27.1265C32.7553 26.0408 33.5704 24.7515 34.1478 23.2586C34.7252 21.7657 35.014 20.1541 35.014 18.4237C35.014 16.6933 34.7252 15.0986 34.1478 13.6396C33.5704 12.1467 32.7553 10.8744 31.7024 9.82256C30.6834 8.77075 29.4607 7.95644 28.0341 7.37964C26.6416 6.76891 25.1132 6.46355 23.4489 6.46355H8.41938V30.5365H23.4489Z" fill="white"/>
<path d="M47.1347 37V0H53.605V37H47.1347Z" fill="white"/>
<path d="M60.3607 37V30.5365H88.1271C89.8593 30.5365 91.1839 30.0954 92.101 29.2132C93.052 28.331 93.5275 27.1605 93.5275 25.7015C93.5275 24.1068 93.052 22.9193 92.101 22.1389C91.1839 21.3246 89.8593 20.9175 88.1271 20.9175H71.1106C69.3784 20.9175 67.799 20.663 66.3725 20.1541C64.9799 19.6112 63.7912 18.8817 62.8062 17.9656C61.8552 17.0156 61.1079 15.8959 60.5645 14.6066C60.055 13.3173 59.8003 11.9092 59.8003 10.3824C59.8003 8.8895 60.038 7.51536 60.5135 6.25997C61.023 4.97066 61.7533 3.86795 62.7043 2.95186C63.6893 2.03576 64.895 1.32325 66.3215 0.814307C67.7481 0.271436 69.3784 0 71.2125 0H97.8071V6.46355H71.2125C69.718 6.46355 68.5632 6.8707 67.7481 7.68501C66.9329 8.46538 66.5253 9.56809 66.5253 10.9931C66.5253 12.4182 66.9329 13.5209 67.7481 14.3012C68.5972 15.0816 69.735 15.4718 71.1616 15.4718H88.1271C91.8972 15.4718 94.7502 16.354 96.6862 18.1183C98.6562 19.8826 99.6412 22.563 99.6412 26.1596C99.6412 27.7203 99.4034 29.1623 98.9279 30.4856C98.4524 31.8088 97.7392 32.9624 96.7881 33.9464C95.8371 34.8964 94.6314 35.6428 93.1709 36.1857C91.7443 36.7286 90.0631 37 88.1271 37H60.3607Z" fill="white"/>
<path d="M117.059 37V6.46355H105.998V0H134.591V6.46355H123.53V37H117.059Z" fill="white"/>
<path d="M176.246 37L166.872 26.7194H153.014V21.0193H168.451C170.795 21.0193 172.561 20.3916 173.75 19.1362C174.939 17.8469 175.533 15.9977 175.533 13.5887C175.533 11.1797 174.905 9.39844 173.648 8.24484C172.425 7.05731 170.693 6.46355 168.451 6.46355H148.276V37H141.857V0H168.451C170.557 0 172.442 0.32233 174.106 0.96699C175.771 1.57772 177.18 2.47685 178.335 3.66438C179.49 4.81797 180.373 6.22604 180.984 7.88858C181.596 9.55112 181.901 11.4172 181.901 13.4869C181.901 16.5745 181.222 19.1701 179.864 21.2737C178.539 23.3434 176.671 24.8363 174.259 25.7524L185.417 37H176.246Z" fill="white"/>
<path d="M189.131 37V0H195.601V37H189.131Z" fill="white"/>
<path d="M219.271 37C216.69 37 214.295 36.525 212.088 35.575C209.914 34.591 208.012 33.2678 206.382 31.6052C204.785 29.9088 203.529 27.9069 202.612 25.5997C201.728 23.2925 201.287 20.7987 201.287 18.1183C201.287 15.4039 201.728 12.9271 202.612 10.6878C203.529 8.44842 204.785 6.54837 206.382 4.98762C208.012 3.39294 209.914 2.17148 212.088 1.32325C214.295 0.441082 216.69 0 219.271 0H239.345V6.46355H219.271C217.607 6.46355 216.062 6.76891 214.635 7.37964C213.243 7.95644 212.037 8.77075 211.018 9.82256C209.999 10.8744 209.201 12.1298 208.623 13.5887C208.046 15.0477 207.757 16.6593 207.757 18.4237C207.757 20.1541 208.046 21.7657 208.623 23.2586C209.201 24.7515 209.999 26.0408 211.018 27.1265C212.037 28.1784 213.243 29.0096 214.635 29.6204C216.062 30.2311 217.607 30.5365 219.271 30.5365H239.345V37H219.271Z" fill="white"/>
<path d="M256.468 37V6.46355H245.407V0H275V6.46355H262.939V37H256.468Z" fill="white"/>
<path d="M38.9283 138.997C33.3409 138.997 28.1578 137.957 23.3791 135.878C18.6738 133.724 14.5568 130.827 11.0279 127.188C7.57246 123.474 4.85226 119.092 2.86724 114.042C0.955748 108.991 0 103.532 0 97.6644C0 91.7226 0.955748 86.3007 2.86724 81.3987C4.85226 76.4967 7.57246 72.3374 11.0279 68.9208C14.5568 65.43 18.6738 62.7562 23.3791 60.8993C28.1578 58.9682 33.3409 58.0027 38.9283 58.0027H58.4477C64.2557 58.0027 69.549 58.9682 74.3278 60.8993C79.18 62.8304 83.3339 65.5414 86.7893 69.0322C90.2447 72.523 92.9281 76.7195 94.8396 81.6215C96.7511 86.4492 97.7068 91.7969 97.7068 97.6644C97.7068 103.532 96.7143 108.991 94.7293 114.042C92.8178 119.092 90.0976 123.474 86.5687 127.188C83.1133 130.827 78.9962 133.724 74.2175 135.878C69.4388 137.957 64.1821 138.997 58.4477 138.997H38.9283ZM58.4477 124.848C62.1236 124.848 65.5055 124.18 68.5933 122.843C71.6811 121.506 74.3278 119.686 76.5333 117.384C78.8124 115.007 80.5769 112.185 81.8267 108.917C83.0765 105.649 83.7015 102.121 83.7015 98.3329C83.7015 94.545 83.0765 91.0541 81.8267 87.8604C80.5769 84.5924 78.8124 81.8072 76.5333 79.5047C74.3278 77.2022 71.6811 75.4197 68.5933 74.1571C65.5055 72.8201 62.1236 72.1517 58.4477 72.1517H38.9283C35.3259 72.1517 31.9808 72.8201 28.893 74.1571C25.8787 75.4197 23.2688 77.2022 21.0632 79.5047C18.8576 81.8072 17.1299 84.5553 15.8801 87.749C14.6303 90.9427 14.0054 94.4707 14.0054 98.3329C14.0054 102.121 14.6303 105.649 15.8801 108.917C17.1299 112.185 18.8576 115.007 21.0632 117.384C23.2688 119.686 25.8787 121.506 28.893 122.843C31.9808 124.18 35.3259 124.848 38.9283 124.848H58.4477Z" fill="white"/>
<path d="M122.053 79.7275V138.997H108.71V65.4671C108.71 62.8676 109.335 60.8251 110.584 59.3396C111.908 57.7799 113.672 57 115.878 57C116.907 57 117.9 57.2228 118.855 57.6685C119.811 58.1141 120.804 58.8568 121.833 59.8966L178.406 116.604V57.3342H191.749V131.533C191.749 134.207 191.088 136.286 189.764 137.772C188.515 139.257 186.86 140 184.802 140C182.523 140 180.391 138.997 178.406 136.992L122.053 79.7275Z" fill="white"/>
</svg>
